# AST/ASF file generated using VICON BodyLanguage
# -----------------------------------------------
:version 1.10
:name VICON
:units
  mass 1.0
  length 0.45
  angle deg
:documentation
   .ast/.asf automatically generated from VICON data using
   VICON BodyBuilder and BodyLanguage model FoxedUp or BRILLIANT.MOD
:root
   order TX TY TZ RX RY RZ
   axis XYZ
   position 0 0 0  
   orientation 0 0 0 
:bonedata
  begin
     id 1 
     name lhipjoint
     direction 0.567149 -0.783011 0.255413 
     length 2.28399 
     axis 0 0 0  XYZ
  end
  begin
     id 2 
     name lfemur
     direction 0.34202 -0.939693 0  
     length 7.34031  
     axis 0 0 20  XYZ
    dof rx ry rz
    limits (-160.0 20.0)
           (-70.0 70.0)
           (-60.0 70.0)
  end
  begin
     id 3 
     name ltibia
     direction 0.34202 -0.939693 0   
     length 6.9833   
     axis 0 0 20   XYZ
    dof rx
    limits (-10.0 170.0)
  end
  begin
     id 4 
     name lfoot
     direction 0.136498 -0.375025 0.91691   
     length 2.33665   
     axis -90 7.62852e-016 20   XYZ
    dof rx rz
    limits (-45.0 90.0)
           (-70.0 20.0)
  end
  begin
     id 5 
     name ltoes
     direction 1.5367e-011 -4.21617e-011 1   
     length 1.15039   
     axis -90 7.62852e-016 20   XYZ
    dof rx
    limits (-90.0 20.0)
  end
  begin
     id 6 
     name rhipjoint
     direction -0.602854 -0.758518 0.247423   
     length 2.35775  
     axis 0 0 0  XYZ 
  end
  begin
     id 7 
     name rfemur
     direction -0.34202 -0.939693 0   
     length 7.43932   
     axis 0 0 -20   XYZ
    dof rx ry rz
    limits (-160.0 20.0)
           (-70.0 70.0)
           (-70.0 60.0)
  end
  begin
     id 8 
     name rtibia
     direction -0.34202 -0.939693 0   
     length 7.11893   
     axis 0 0 -20   XYZ
    dof rx
    limits (-10.0 170.0)
 end
 begin
     id 9 
     name rfoot
     direction -0.131771 -0.362037 0.922803   
     length 2.53019  
     axis -90 -7.62852e-016 -20   XYZ
    dof rx rz
    limits (-45.0 90.0)
           (-20.0 70.0)
  end
  begin
     id 10 
     name rtoes
     direction -1.53733e-011 -4.21932e-011 1   
     length 1.24596   
     axis -90 -7.62852e-016 -20   XYZ
    dof rx
    limits (-90.0 20.0)
  end
  begin
     id 11 
     name lowerback
     direction 0.0235427 0.999023 -0.0374125   
     length 2.21768   
     axis 0 0 0   XYZ
    dof rx ry rz
    limits (-20.0 45.0)
           (-30.0 30.0)
           (-30.0 30.0)
  end
  begin
     id 12 
     name upperback
     direction 0.0302156 0.996818 -0.073759   
     length 2.20352   
     axis 0 0 0   XYZ
    dof rx ry rz
    limits (-20.0 45.0)
           (-30.0 30.0)
           (-30.0 30.0)
  end
  begin
     id 13 
     name thorax
     direction 0.0187169 0.998235 -0.0563532   
     length 2.22103   
     axis 0 0 0   XYZ
    dof rx ry rz
    limits (-20.0 45.0)
           (-30.0 30.0)
           (-30.0 30.0)
  end
  begin
     id 14 
     name lowerneck
     direction -0.119528 0.987423 0.103481   
     length 1.72948   
     axis 0 0 0   XYZ
    dof rx ry rz
    limits (-20.0 45.0)
           (-30.0 30.0)
           (-30.0 30.0)
  end
  begin
     id 15 
     name upperneck
     direction 0.248049 0.963095 -0.104496   
     length 1.74979   
     axis 0 0 0   XYZ
    dof rx ry rz
    limits (-20.0 45.0)
           (-30.0 30.0)
           (-30.0 30.0)
  end
  begin
     id 16
     name head
     direction 0.0903589 0.994284 -0.056876  
     length 1.78268  
     axis 0 0 0   XYZ
    dof rx ry rz
    limits (-20.0 45.0)
           (-30.0 30.0)
           (-30.0 30.0)
  end
  begin
     id 17 
     name lclavicle
     direction 0.946008 0.242039 -0.215608  
     length 3.80783  
     axis 0 0 0   XYZ
    dof ry rz
    limits (-20.0 10.0)
           (0.0 20.0)
  end
  begin
     id 18 
     name lhumerus
     direction 1 -4.48991e-011 -2.25695e-027   
     length 4.83125   
     axis 180 -30 -90   XYZ
    dof rx ry rz
    limits (-60.0 90.0)
           (-90.0 90.0)
           (-90.0 90.0)
  end
  begin
     id 19
     name lradius
     direction 0.999991 0.00366712 -0.00211721   
     length 3.00391   
     axis 180 -30 -90   XYZ
    dof rx
    limits (-10.0 170.0)
  end
  begin
     id 20
     name lwrist
     direction 0.999991 0.00393016 -0.00141978   
     length 1.50195   
     axis -1.00488e-014 90 90   XYZ
    dof ry
    limits (-180.0 0.0)
 end
  begin
     id 21 
     name lhand
     direction 1 -4.49123e-011 2.72098e-026   
     length 1.2717   
     axis -1.73687e-014 90 90   XYZ
    dof rx rz
    limits (-90.0 90.0)
           (-45.0 45.0)
  end
  begin
     id 22 
     name lfingers
     direction 1 -4.48678e-011 5.4479e-026   
     length 1.02528   
     axis -3.47372e-014 90 90   XYZ
    dof rx
    limits (0.0 90.0)
  end
  begin
     id 23
     name lthumb
     direction 0.707107 -6.34851e-011 0.707107   
     length 1.4721   
     axis -90 45 -1.62303e-014   XYZ
    dof rx rz
    limits (-45.0 45.0)
           (-45.0 45.0)
  end
  begin
     id 24 
     name rclavicle
     direction -0.981723 0.189447 -0.0181673   
     length 3.74989  
     axis 0 0 0   XYZ 
    dof ry rz
    limits (-10.0 20.0)
           (-20.0 0.0)
  end
  begin
     id 25 
     name rhumerus
     direction -1 -4.48985e-011 2.38206e-027  
     length 4.61118   
     axis 180 30 90   XYZ
    dof rx ry rz
    limits (-90.0 60.0)
           (-90.0 90.0)
           (-90.0 90.0)
  end
  begin
     id 26 
     name rradius
     direction -1 -4.48977e-011 7.41019e-027   
     length 2.91491   
     axis 180 30 90   XYZ
    dof rx
    limits (-10.0 170.0)
  end
  begin
     id 27 
     name rwrist
     direction -1 -4.48549e-011 1.3624e-026   
     length 1.45745   
     axis -1.00488e-014 -90 -90   XYZ
    dof ry
    limits (-180.0 0.0)
  end
  begin
     id 28
     name rhand
     direction -1 -4.49107e-011 2.72109e-026   
     length 1.30769   
     axis -1.73687e-014 -90 -90   XYZ
    dof rx rz
    limits (-90.0 90.0)
           (-45.0 45.0)
  end
  begin
     id 29
     name rfingers
     direction -1 -4.48919e-011 5.44468e-026   
     length 1.05429   
     axis -3.47372e-014 -90 -90   XYZ
    dof rx
    limits (0.0 90.0)
  end
  begin
     id 30
     name rthumb
     direction -0.707107 -6.35315e-011 0.707107   
     length 1.51376   
     axis -90 -45 1.62303e-014   XYZ
    dof rx rz
    limits (-45.0 45.0)
           (-45.0 45.0)
  end
:hierarchy
  begin
    root lhipjoint rhipjoint lowerback
    lhipjoint lfemur
    lfemur ltibia
    ltibia lfoot
    lfoot ltoes
    rhipjoint rfemur
    rfemur rtibia
    rtibia rfoot
    rfoot rtoes
    lowerback upperback
    upperback thorax
    thorax lowerneck lclavicle rclavicle
    lowerneck upperneck
    upperneck head
    lclavicle lhumerus
    lhumerus lradius
    lradius lwrist
    lwrist lhand lthumb
    lhand lfingers
    rclavicle rhumerus
    rhumerus rradius
    rradius rwrist
    rwrist rhand rthumb
    rhand rfingers
  end

#!OML:ASF X:\für Bonn\!DataBase\2005_08_11_Bastian_Final\c3d\Bastian.ASF
:FULLY-SPECIFIED
:DEGREES
16
root -1.52337 17.6468 -5.64836 169.653 -9.79962 -173.292
lowerback 15.3657 -3.21435 2.52668
upperback 5.84947 -4.73207 3.3945
thorax -2.27266 -2.76825 2.95533
lowerneck -5.80076 -5.43031 -5.88213
upperneck -1.6865 -6.80159 6.92402
head 0.954445 -3.24133 3.05346
rclavicle 1.00883e-014 -1.03368e-014
rhumerus 224.259 127.323 135.307
rradius 40.4591
rwrist -66.228
rhand -44.6553 -11.2392
rfingers 7.12502
rthumb -17.452 -40.4758
lclavicle 1.00883e-014 -1.03368e-014
lhumerus -289.099 -64.6125 381.303
lradius 40.3217
lwrist 43.0741
lhand -46.2634 19.0574
lfingers 7.12502
lthumb -18.999 48.1495
rfemur -9.5442 5.34786 28.7398
rtibia 28.2847
rfoot -2.8819 -6.93507
rtoes 0.344347
lfemur 15.8285 -1.08752 -11.1089
ltibia 32.432
lfoot -8.52479 -6.05217
ltoes -31.4582
17
root -1.50343 17.6491 -5.69305 169.495 -9.89301 -173.162
lowerback 15.3424 -3.22061 2.61162
upperback 5.77883 -4.71358 3.41027
thorax -2.34042 -2.75311 2.92334
lowerneck -5.19296 -5.40476 -5.97068
upperneck -1.63926 -6.81017 6.97273
head 0.869416 -3.26289 3.10074
rclavicle 4.12478e-015 2.38542e-015
rhumerus 228.389 129.634 138.525
rradius 40.8772
rwrist -65.0558
rhand -44.324 -10.1195
rfingers 7.12502
rthumb -17.1331 -39.3841
lclavicle 4.12478e-015 2.38542e-015
lhumerus -286.286 -61.2808 378.332
lradius 40.8435
lwrist 41.5399
lhand -46.4413 18.3036
lfingers 7.12502
lthumb -19.1701 47.3789
rfemur -9.17574 5.34588 28.9972
rtibia 28.1581
rfoot -2.98437 -7.06595
rtoes 0.560145
lfemur 15.0586 -0.947109 -10.8437
ltibia 33.9759
lfoot -8.28501 -6.08886
ltoes -31.4395
18
root -1.48373 17.6525 -5.74287 169.371 -10.006 -173.162
lowerback 15.2755 -3.22588 2.55128
upperback 5.69112 -4.70812 3.39111
thorax -2.39574 -2.74172 2.93511
lowerneck -4.63617 -5.37534 -6.04426
upperneck -1.45117 -6.82055 6.99137
head 0.836713 -3.28555 3.13257
rclavicle -1.19271e-015 -1.68967e-014
rhumerus 232.104 132.029 141.498
rradius 41.3257
rwrist -63.7642
rhand -44.2266 -9.13149
rfingers 7.12502
rthumb -17.0393 -38.4042
lclavicle -1.19271e-015 -1.68967e-014
lhumerus -284.063 -57.8568 375.753
lradius 41.3508
lwrist 40.3308
lhand -46.6592 17.3094
lfingers 7.12502
lthumb -19.3796 46.3637
rfemur -8.828 5.33589 29.1068
rtibia 28.0859
rfoot -3.14843 -7.17976
rtoes 0.840287
lfemur 14.382 -0.777972 -10.7227
ltibia 35.2487
lfoot -8.02815 -6.17582
ltoes -31.5806
19
root -1.46445 17.6577 -5.79717 169.236 -10.1122 -173.159
lowerback 15.1498 -3.2337 2.4917
upperback 5.64206 -4.71497 3.36153
thorax -2.37943 -2.73828 2.93069
lowerneck -4.15331 -5.34385 -6.13544
upperneck -1.22599 -6.82338 7.05311
head 0.830987 -3.30135 3.18057
rclavicle 2.93207e-015 -2.24627e-014
rhumerus 235.445 134.595 144.257
rradius 41.8545
rwrist -62.5663
rhand -44.3532 -8.24475
rfingers 7.12502
rthumb -17.1612 -37.5069
lclavicle 2.93207e-015 -2.24627e-014
lhumerus -281.769 -54.2436 372.777
lradius 41.92
lwrist 39.7779
lhand -47.0386 16.2597
lfingers 7.12502
lthumb -19.7444 45.277
rfemur -8.46596 5.40412 29.234
rtibia 28.0558
rfoot -3.35512 -7.36867
rtoes 1.30386
lfemur 13.8269 -0.678041 -10.6225
ltibia 36.2542
lfoot -7.74031 -6.30869
ltoes -31.2549
20
root -1.44506 17.6639 -5.85281 169.122 -10.2159 -173.203
lowerback 15.0276 -3.23425 2.36757
upperback 5.57236 -4.71625 3.33352
thorax -2.38219 -2.73098 2.96433
lowerneck -3.57831 -5.30696 -6.23057
upperneck -1.0871 -6.81834 7.07747
head 0.779092 -3.31473 3.22051
rclavicle -2.78299e-014 1.90833e-014
rhumerus 238.25 137.281 146.557
rradius 42.4025
rwrist -61.369
rhand -44.6931 -7.56145
rfingers 7.12502
rthumb -17.4883 -36.7948
lclavicle -2.78299e-014 1.90833e-014
lhumerus -279.808 -50.5151 369.892
lradius 42.4974
lwrist 39.5673
lhand -47.5016 15.3712
lfingers 7.12502
lthumb -20.1894 44.342
rfemur -8.10957 5.45567 29.3175
rtibia 28.0192
rfoot -3.54475 -7.54944
rtoes 1.51906
lfemur 13.3216 -0.538758 -10.5598
ltibia 37.0429
lfoot -7.48406 -6.53605
ltoes -30.7602
21
root -1.42738 17.6705 -5.91014 169.011 -10.3132 -173.254
lowerback 14.9287 -3.23877 2.26141
upperback 5.4804 -4.71526 3.29722
thorax -2.42278 -2.72076 2.982
lowerneck -2.95202 -5.26906 -6.34209
upperneck -0.985557 -6.81166 7.11465
head 0.707214 -3.32741 3.27014
rclavicle 5.39203e-015 3.8763e-014
rhumerus 240.596 140.054 148.418
rradius 42.9733
rwrist -60.338
rhand -45.2102 -7.15035
rfingers 7.12502
rthumb -17.9859 -36.3387
lclavicle 5.39203e-015 3.8763e-014
lhumerus -278.453 -46.7427 367.489
lradius 42.942
lwrist 39.2225
lhand -47.9436 14.7176
lfingers 7.12502
lthumb -20.6142 43.643
rfemur -7.73632 5.53915 29.3893
rtibia 27.9616
rfoot -3.76567 -7.7305
rtoes 1.90661
lfemur 12.8571 -0.405652 -10.532
ltibia 37.6592
lfoot -7.28658 -6.75479
ltoes -30.1608
22
root -1.41007 17.6785 -5.96873 168.904 -10.3704 -173.309
lowerback 14.8296 -3.23563 2.1689
upperback 5.40043 -4.70421 3.24111
thorax -2.45351 -2.70562 2.96897
lowerneck -2.29286 -5.22648 -6.40077
upperneck -0.971181 -6.79601 7.14545
head 0.598463 -3.3351 3.31044
rclavicle -1.55549e-014 -2.06736e-014
rhumerus 242.728 142.9 150.177
rradius 43.5989
rwrist -59.8189
rhand -45.8898 -6.86768
rfingers 7.12502
rthumb -18.6397 -35.9946
lclavicle -1.55549e-014 -2.06736e-014
lhumerus -277.563 -42.9814 365.462
lradius 43.1864
lwrist 38.7194
lhand -48.44 14.4225
lfingers 7.12502
lthumb -21.0911 43.2954
rfemur -7.34446 5.66815 29.4787
rtibia 27.878
rfoot -3.93733 -7.92948
rtoes 2.04991
lfemur 12.4002 -0.240472 -10.5171
ltibia 38.1353
lfoot -7.19134 -6.96973
ltoes -29.4872
23
root -1.39298 17.6879 -6.02801 168.796 -10.4197 -173.407
lowerback 14.7713 -3.21561 2.0259
upperback 5.32635 -4.67798 3.18151
thorax -2.49685 -2.6839 2.98097
lowerneck -1.72413 -5.18631 -6.46561
upperneck -0.918278 -6.77903 7.20065
head 0.519109 -3.33944 3.35767
rclavicle 2.65378e-014 1.07344e-014
rhumerus 244.486 145.87 151.619
rradius 44.295
rwrist -59.6597
rhand -46.6344 -6.72729
rfingers 7.12502
rthumb -19.3558 -35.784
lclavicle 2.65378e-014 1.07344e-014
lhumerus -277.275 -39.324 364.11
lradius 43.197
lwrist 37.7543
lhand -48.9117 14.4502
lfingers 7.12502
lthumb -21.5442 43.2719
rfemur -6.91979 5.92617 29.5374
rtibia 27.7764
rfoot -4.13419 -8.26371
rtoes 2.42951
lfemur 11.9432 -0.0442263 -10.5522
ltibia 38.4785
lfoot -7.20835 -7.22876
ltoes -29.1604
24
root -1.3779 17.6971 -6.08802 168.691 -10.4073 -173.49
lowerback 14.7436 -3.20956 1.95019
upperback 5.23961 -4.65814 3.08723
thorax -2.57748 -2.66332 2.92334
lowerneck -1.20483 -5.14028 -6.44418
upperneck -0.824312 -6.75344 7.1932
head 0.454842 -3.33843 3.36567
rclavicle -1.31198e-014 6.16232e-015
rhumerus 245.774 148.914 152.39
rradius 44.947
rwrist -59.6225
rhand -47.2289 -6.46154
rfingers 7.12502
rthumb -19.9273 -35.4599
lclavicle -1.31198e-014 6.16232e-015
lhumerus -277.237 -35.6984 362.591
lradius 43.1353
lwrist 36.943
lhand -49.5108 14.815
lfingers 7.12502
lthumb -22.1195 43.5697
rfemur -6.49326 6.1568 29.6117
rtibia 27.662
rfoot -4.3061 -8.48536
rtoes 2.6754
lfemur 11.5171 0.17948 -10.591
ltibia 38.6872
lfoot -7.31629 -7.49791
ltoes -28.8152
25
root -1.36334 17.7059 -6.14784 168.624 -10.3926 -173.59
lowerback 14.7168 -3.20073 1.87334
upperback 5.1534 -4.6352 2.98831
thorax -2.65837 -2.64118 2.86101
lowerneck -0.809103 -5.09439 -6.44995
upperneck -0.685139 -6.72127 7.21426
head 0.428521 -3.33085 3.38451
rclavicle -8.3415e-014 7.95139e-015
rhumerus 246.709 152.056 152.645
rradius 45.4959
rwrist -59.5271
rhand -47.6167 -6.10383
rfingers 7.12502
rthumb -20.3 -35.0629
lclavicle -8.3415e-014 7.95139e-015
lhumerus -277.461 -32.138 361.25
lradius 42.8658
lwrist 35.9615
lhand -50.0888 15.5446
lfingers 7.12502
lthumb -22.6743 44.2326
rfemur -6.10872 6.44037 29.6742
rtibia 27.5612
rfoot -4.49403 -8.76564
rtoes 2.98415
lfemur 11.0899 0.414526 -10.6493
ltibia 38.7674
lfoot -7.5696 -7.76274
ltoes -28.6839
26
root -1.35074 17.7125 -6.20764 168.531 -10.3242 -173.697
lowerback 14.7799 -3.16907 1.81789
upperback 5.06274 -4.57815 2.88348
thorax -2.79497 -2.60261 2.78224
lowerneck -0.480004 -5.06136 -6.42956
upperneck -0.528503 -6.702 7.24179
head 0.419694 -3.32773 3.39811
rclavicle -3.44394e-014 4.51241e-014
rhumerus 247.314 155.234 152.296
rradius 45.9152
rwrist -59.1486
rhand -47.7002 -5.58365
rfingers 7.12502
rthumb -20.3803 -34.5342
lclavicle -3.44394e-014 4.51241e-014
lhumerus -277.896 -28.7156 360.206
lradius 42.3759
lwrist 34.8768
lhand -50.5279 16.2572
lfingers 7.12502
lthumb -23.0957 44.893
rfemur -5.71115 6.6285 29.7269
rtibia 27.4847
rfoot -4.67232 -8.90632
rtoes 3.15701
lfemur 10.7685 0.658465 -10.7316
ltibia 38.7172
lfoot -7.97864 -8.02911
ltoes -28.6598
27
root -1.33824 17.7195 -6.26637 168.498 -10.2556 -173.819
lowerback 14.8319 -3.1398 1.72147
upperback 4.95227 -4.52818 2.81114
thorax -2.94049 -2.56745 2.76145
lowerneck -0.207844 -5.03396 -6.46934
upperneck -0.34298 -6.68855 7.23636
head 0.431467 -3.32659 3.4095
rclavicle 1.29583e-014 1.27222e-014
rhumerus 248.015 158.37 151.956
rradius 46.1188
rwrist -58.6084
rhand -47.5972 -4.99986
rfingers 7.12502
rthumb -20.2814 -33.961
lclavicle 1.29583e-014 1.27222e-014
lhumerus -278.403 -25.3309 358.934
lradius 41.9177
lwrist 34.1351
lhand -50.9111 17.1333
lfingers 7.12502
lthumb -23.4633 45.7226
rfemur -5.40117 6.74321 29.7458
rtibia 27.4362
rfoot -4.85882 -8.96787
rtoes 3.23968
lfemur 10.4056 0.865677 -10.8484
ltibia 38.5481
lfoot -8.41962 -8.29332
ltoes -28.4437
28
root -1.32768 17.7257 -6.32659 168.439 -10.1681 -173.951
lowerback 14.929 -3.11587 1.65636
upperback 4.84233 -4.48105 2.71022
thorax -3.11406 -2.53327 2.69699
lowerneck 0.0798106 -4.99 -6.48799
upperneck -0.160826 -6.65224 7.24998
head 0.437702 -3.31363 3.42443
rclavicle 1.42752e-014 -2.69353e-014
rhumerus 248.906 161.431 151.93
rradius 46.1372
rwrist -58.1284
rhand -47.4466 -4.3443
rfingers 7.12502
rthumb -20.1366 -33.3207
lclavicle 1.42752e-014 -2.69353e-014
lhumerus -278.986 -22.0088 357.382
lradius 41.4968
lwrist 33.7046
lhand -51.2004 17.8268
lfingers 7.12502
lthumb -23.7408 46.3804
rfemur -5.05878 6.86528 29.7577
rtibia 27.4115
rfoot -5.06144 -9.03323
rtoes 3.38458
lfemur 10.1196 1.07374 -10.9875
ltibia 38.2636
lfoot -8.867 -8.49257
ltoes -28.3619
